<?xml version="1.0" encoding="utf-8"?>
<!-- Generator: Adobe Illustrator 27.0.0, SVG Export Plug-In . SVG Version: 6.00 Build 0)  -->
<svg version="1.1" id="Layer_1" xmlns="http://www.w3.org/2000/svg" xmlns:xlink="http://www.w3.org/1999/xlink" x="0px" y="0px"
	 viewBox="0 0 48 48" style="enable-background:new 0 0 48 48;" xml:space="preserve">
<style type="text/css">
	.st0{fill:none;stroke:#000000;stroke-width:2;}
	.st1{fill:#FFFFFF;}
</style>
<g>
	<circle class="st0" cx="24" cy="24" r="17.1"/>
	<path d="M29.3,14.2c-1.4-1.2-3.3-1.9-5.3-1.9s-3.9,0.7-5.3,1.9c-1.5,1.3-2.3,3-2.3,4.9v0.4c0,0.2,0.2,0.4,0.4,0.4h2.3
		c0.2,0,0.4-0.2,0.4-0.4v-0.4c0-2.1,2-3.8,4.5-3.8s4.5,1.7,4.5,3.8c0,1.5-1,2.8-2.7,3.4c-1,0.4-1.9,1.1-2.5,1.9
		c-0.6,0.9-0.9,2-0.9,3.1v1c0,0.2,0.2,0.4,0.4,0.4h2.3c0.2,0,0.4-0.2,0.4-0.4v-1.1c0-0.9,0.6-1.8,1.5-2.1c2.8-1.1,4.6-3.5,4.6-6.3
		C31.6,17.2,30.8,15.5,29.3,14.2 M22.1,33.8c0,1,0.8,1.9,1.9,1.9c1,0,1.9-0.8,1.9-1.9S25,32,24,32C23,32,22.1,32.8,22.1,33.8"/>
	<path class="st1" d="M41.2,45.1c-0.1,0-0.1,0-0.2-0.1c-0.1-0.1-0.2-0.2-0.4-0.3l-2.3-5.3L35.5,42c-0.1,0.1-0.2,0.2-0.4,0.2
		c-0.1,0-0.2,0-0.2-0.1c-0.2-0.1-0.4-0.3-0.4-0.6V28c0-0.2,0.1-0.5,0.4-0.6c0.1-0.1,0.2-0.1,0.2-0.1c0.1,0,0.3,0.1,0.4,0.2l9.9,9.3
		c0.2,0.2,0.2,0.4,0.2,0.7s-0.3,0.4-0.6,0.4l-3.9,0.4l2.4,5.2c0.1,0.1,0.1,0.3,0,0.5c-0.1,0.1-0.2,0.3-0.3,0.4l-1.8,0.8
		C41.4,45.1,41.2,45.1,41.2,45.1"/>
	<path d="M35.1,28l9.9,9.3l-4.8,0.4l2.8,6l-1.8,0.8l-2.7-6.1L35,41.5L35.1,28L35.1,28z M35.1,26.8c-0.2,0-0.3,0.1-0.5,0.1
		c-0.4,0.2-0.7,0.6-0.7,1.1v13.6c0,0.5,0.3,0.9,0.7,1.1c0.2,0.1,0.4,0.1,0.5,0.1c0.3,0,0.6-0.1,0.9-0.3l2.1-2L40,45
		c0.1,0.3,0.4,0.6,0.7,0.7c0.1,0.1,0.3,0.1,0.4,0.1c0.2,0,0.3-0.1,0.5-0.1l1.8-0.8c0.3-0.1,0.6-0.4,0.7-0.7s0.1-0.7,0-0.9l-2-4.4
		l3-0.2c0.5-0.1,0.9-0.4,1-0.8c0.2-0.4,0.1-1-0.3-1.3l-9.9-9.3C35.8,26.9,35.4,26.8,35.1,26.8"/>
</g>
</svg>
