<?xml version="1.0" encoding="utf-8"?>
<!-- Generator: Adobe Illustrator 27.0.0, SVG Export Plug-In . SVG Version: 6.00 Build 0)  -->
<svg version="1.1" xmlns="http://www.w3.org/2000/svg" xmlns:xlink="http://www.w3.org/1999/xlink" x="0px" y="0px"
	 viewBox="0 0 48 48" style="enable-background:new 0 0 48 48;" xml:space="preserve">
<style type="text/css">
	.st0{display:none;}
	.st1{display:inline;}
	.st2{fill:#FFFFFF;stroke:#000000;stroke-width:1.5;stroke-linecap:round;stroke-linejoin:round;}
	.st3{fill:none;stroke:#000000;stroke-width:1.5;stroke-linecap:round;stroke-linejoin:round;}
</style>
<g id="Layer_1" class="st0">
	<g class="st1">
		<path class="st2" d="M19.7,4v5.7l-2.9,1.4l-4.3-4.3l-5.7,5.7l4.3,4.3l-1.4,2.9H4v8.6h5.7l1.4,2.9l-4.3,4.3l5.7,5.7l4.3-4.3
			l2.9,1.4V44h8.6v-5.7l2.9-1.4l4.3,4.3l5.7-5.7l-4.3-4.3l1.4-2.9H44v-8.6h-5.7l-1.4-2.9l4.3-4.3l-5.7-5.7l-4.3,4.3l-2.9-1.4V4H19.7
			z"/>
		<circle class="st2" cx="24" cy="24" r="5.7"/>
	</g>
</g>
<g id="Layer_2">
	<polygon class="st2" points="11.6,5.8 6.6,14.5 16.6,14.5 	"/>
	<rect x="7.1" y="19.5" class="st2" width="9" height="9"/>
	<circle class="st2" cx="11.6" cy="38" r="4.5"/>
	<line class="st3" x1="21.7" y1="10.2" x2="42.5" y2="10.2"/>
	<line class="st3" x1="21.7" y1="24" x2="42.5" y2="24"/>
	<line class="st3" x1="21.7" y1="37.9" x2="42.5" y2="37.9"/>
</g>
</svg>
