<?xml version="1.0" encoding="utf-8"?>
<!-- Generator: Adobe Illustrator 27.0.0, SVG Export Plug-In . SVG Version: 6.00 Build 0)  -->
<svg version="1.1" id="Layer_1" xmlns="http://www.w3.org/2000/svg" xmlns:xlink="http://www.w3.org/1999/xlink" x="0px" y="0px"
	 viewBox="0 0 48 48" style="enable-background:new 0 0 48 48;" xml:space="preserve">
<style type="text/css">
	.st0{fill:none;stroke:#000000;stroke-width:2;stroke-linecap:round;stroke-miterlimit:50;}
	.st1{fill:none;stroke:#000000;stroke-linecap:round;stroke-miterlimit:50;}
	.st2{fill:#FFFFFF;stroke:#000000;stroke-width:3;stroke-linecap:round;stroke-miterlimit:50;}
	.st3{fill:#FFFFFF;}
</style>
<path class="st0" d="M24,39.7c0,0,15-5,8.8-18.5c0,0-3.6-8.7-14.7-10.1S4.4,16.8,4.4,16.8s-4.9,9.8,3.6,10.8c1.2,0.1,3.8-0.4,4.9,1
	s0.2,3.2,0,6.7C12.8,37.3,14.3,42,24,39.7z"/>
<circle class="st1" cx="11.2" cy="19.3" r="2.7"/>
<circle class="st1" cx="27" cy="22.3" r="1.8"/>
<circle class="st1" cx="27" cy="30.7" r="1.8"/>
<circle class="st1" cx="19.5" cy="34.8" r="1.8"/>
<g>
	<path class="st2" d="M39.1,10.6c-0.5,2.5-1.6,8.3-1.7,20.5c0,0.2,0.1,0.3,0.3,0.3h3.7c0.2,0,0.3-0.1,0.3-0.3c0,0,0,0,0,0
		c-0.1-2.1-0.6-13.8-2.1-20.5c0-0.2-0.2-0.3-0.4-0.2C39.3,10.4,39.2,10.5,39.1,10.6z"/>
	<path class="st2" d="M41.8,34.3c0,1.2-1.5,5.6-2.1,5.6c-0.7,0-2.1-4.4-2.1-5.6c0-1.2,0.9-2.1,2.1-2.1S41.8,33.2,41.8,34.3
		L41.8,34.3L41.8,34.3z"/>
	<path class="st3" d="M39.1,10.6c-0.5,2.5-1.6,8.3-1.7,20.5c0,0.2,0.1,0.3,0.3,0.3h3.7c0.2,0,0.3-0.1,0.3-0.3c0,0,0,0,0,0
		c-0.1-2.1-0.6-13.8-2.1-20.5c0-0.2-0.2-0.3-0.4-0.2C39.3,10.4,39.2,10.5,39.1,10.6z"/>
	<path class="st3" d="M41.8,34.3c0,1.2-1.5,5.6-2.1,5.6c-0.7,0-2.1-4.4-2.1-5.6c0-1.2,0.9-2.1,2.1-2.1S41.8,33.2,41.8,34.3
		L41.8,34.3L41.8,34.3z"/>
</g>
</svg>
