<?xml version="1.0" encoding="utf-8"?>
<!-- Generator: Adobe Illustrator 27.0.0, SVG Export Plug-In . SVG Version: 6.00 Build 0)  -->
<svg version="1.1" id="Layer_1" xmlns="http://www.w3.org/2000/svg" xmlns:xlink="http://www.w3.org/1999/xlink" x="0px" y="0px"
	 viewBox="0 0 48 48" style="enable-background:new 0 0 48 48;" xml:space="preserve">
<style type="text/css">
	.st0{fill:none;stroke:#000000;stroke-width:1.75;stroke-linecap:round;stroke-linejoin:round;}
</style>
<g>
	<path class="st0" d="M36.7,30V18.8c0-1.2-1-2.2-2.2-2.2c-0.8,0-2.3,0.5-2.3,2.2v-4.5c0-1.2-1-2.2-2.2-2.2c-0.8,0-2.3,0.4-2.3,2.2
		v-3c0-1.2-1-2.2-2.2-2.2c-1.3,0-2.3,1-2.3,2.2v3c0-1.8-1.5-2.2-2.2-2.2c-1.3,0-2.2,1-2.2,2.3V27 M23.2,14.2v8.2 M27.7,14.2v8.2
		 M32.2,14.2v8.2"/>
	<path class="st0" d="M36.7,30c0,6-4.7,9-10.5,9s-7.8-1.5-12.3-9l-2.4-3.9c-0.8-1.3-0.2-3,1.3-3.5c1-0.3,2.1,0,2.7,0.8l3.1,3.6"/>
</g>
</svg>
