<?xml version="1.0" encoding="utf-8"?>
<!-- Generator: Adobe Illustrator 27.0.0, SVG Export Plug-In . SVG Version: 6.00 Build 0)  -->
<svg version="1.1" id="Layer_1" xmlns="http://www.w3.org/2000/svg" xmlns:xlink="http://www.w3.org/1999/xlink" x="0px" y="0px"
	 viewBox="0 0 48 48" style="enable-background:new 0 0 48 48;" xml:space="preserve">
<style type="text/css">
	.st0{fill:none;stroke:#000000;stroke-miterlimit:10;stroke-dasharray:4;}
	.st1{fill:#FFFFFF;}
</style>
<path class="st0" d="M35.1,28.3c0.5,0.2,5.5-6.2,6.3-9.2c0.2-0.9,1.1-4.5-0.9-8.2c-2-3.7-5.6-5.2-7.9-6.2C27.6,2.7,23.2,3,19.7,3.2
	C12.1,3.7,7.3,3.9,4.5,7.3c-3.3,4.1-2.7,8.5-1.5,14c0.8,3.8,1.7,6.7,4.6,8c3.7,1.7,6.7,4.2,10.2,2.2c2.4-1.3,1.8-0.9,4.3-6.5
	c0.8-1.9,1.3-3.5,3.5-4.6c2.8-1.4,5.8-1.5,7.3,0.3C34.7,22.8,34.5,28.1,35.1,28.3z"/>
<path class="st1" d="M41.2,45.1c-0.1,0-0.1,0-0.2-0.1c-0.1-0.1-0.2-0.2-0.4-0.3l-2.3-5.3L35.5,42c-0.1,0.1-0.2,0.2-0.4,0.2
	c-0.1,0-0.2,0-0.2-0.1c-0.2-0.1-0.4-0.3-0.4-0.6V28c0-0.2,0.1-0.5,0.4-0.6c0.1-0.1,0.2-0.1,0.2-0.1c0.1,0,0.3,0.1,0.4,0.2l9.9,9.3
	c0.2,0.2,0.2,0.4,0.2,0.7s-0.3,0.4-0.6,0.4l-3.9,0.4l2.4,5.2c0.1,0.1,0.1,0.3,0,0.5c-0.1,0.1-0.2,0.3-0.3,0.4l-1.8,0.8
	C41.4,45.1,41.2,45.1,41.2,45.1"/>
<path d="M35.1,28l9.9,9.3l-4.8,0.4l2.8,6l-1.8,0.8l-2.7-6.1l-3.5,3.1V28z M35.1,26.8c-0.2,0-0.3,0.1-0.5,0.1
	c-0.4,0.2-0.7,0.6-0.7,1.1v13.6c0,0.5,0.3,0.9,0.7,1.1c0.2,0.1,0.4,0.1,0.5,0.1c0.3,0,0.6-0.1,0.9-0.3l2.1-2l1.9,4.5
	c0.1,0.3,0.4,0.6,0.7,0.7c0.1,0.1,0.3,0.1,0.4,0.1c0.2,0,0.3-0.1,0.5-0.1l1.8-0.8c0.3-0.1,0.6-0.4,0.7-0.7s0.1-0.7,0-0.9l-2-4.4
	l3-0.2c0.5-0.1,0.9-0.4,1-0.8c0.2-0.4,0.1-1-0.3-1.3l-9.9-9.3C35.8,26.9,35.4,26.8,35.1,26.8"/>
</svg>
