<?xml version="1.0" encoding="utf-8"?>
<!-- Generator: Adobe Illustrator 27.0.0, SVG Export Plug-In . SVG Version: 6.00 Build 0)  -->
<svg version="1.1" id="Layer_1" xmlns="http://www.w3.org/2000/svg" xmlns:xlink="http://www.w3.org/1999/xlink" x="0px" y="0px"
	 viewBox="0 0 48 48" style="enable-background:new 0 0 48 48;" xml:space="preserve">
<style type="text/css">
	.st0{fill:none;stroke:#000000;stroke-miterlimit:10;}
	.st1{fill:none;stroke:#000000;stroke-miterlimit:10;stroke-dasharray:3.466,3.466;}
	.st2{fill:none;stroke:#000000;stroke-miterlimit:10;stroke-dasharray:4.3343,4.3343;}
	.st3{fill:#FFFFFF;}
</style>
<g>
	<g>
		<polyline class="st0" points="36.2,3.1 34.9,1.5 32.9,1.5 		"/>
		<line class="st1" x1="29.5" y1="1.5" x2="17.3" y2="1.5"/>
		<polyline class="st0" points="15.6,1.5 13.6,1.5 12.4,3.1 		"/>
		<line class="st2" x1="9.6" y1="6.4" x2="5.6" y2="11.5"/>
		<polyline class="st0" points="4.2,13.2 2.9,14.8 4.2,16.3 		"/>
		<line class="st2" x1="6.9" y1="19.7" x2="11" y2="24.8"/>
		<polyline class="st0" points="12.4,26.4 13.6,28 15.6,28 		"/>
		<line class="st1" x1="19.1" y1="28" x2="31.2" y2="28"/>
		<polyline class="st0" points="32.9,28 34.9,28 36.2,26.4 		"/>
		<line class="st2" x1="38.9" y1="23.1" x2="43" y2="18"/>
		<polyline class="st0" points="44.3,16.3 45.6,14.8 44.3,13.2 		"/>
		<line class="st2" x1="41.6" y1="9.8" x2="37.5" y2="4.8"/>
	</g>
</g>
<path class="st3" d="M41.2,45.1c-0.1,0-0.1,0-0.2-0.1c-0.1-0.1-0.2-0.2-0.4-0.3l-2.3-5.3L35.5,42c-0.1,0.1-0.2,0.2-0.4,0.2
	c-0.1,0-0.2,0-0.2-0.1c-0.2-0.1-0.4-0.3-0.4-0.6V28c0-0.2,0.1-0.5,0.4-0.6c0.1-0.1,0.2-0.1,0.2-0.1c0.1,0,0.3,0.1,0.4,0.2l9.9,9.3
	c0.2,0.2,0.2,0.4,0.2,0.7s-0.3,0.4-0.6,0.4l-3.9,0.4l2.4,5.2c0.1,0.1,0.1,0.3,0,0.5c-0.1,0.1-0.2,0.3-0.3,0.4l-1.8,0.8
	C41.4,45.1,41.2,45.1,41.2,45.1"/>
<path d="M35.1,28l9.9,9.3l-4.8,0.4l2.8,6l-1.8,0.8l-2.7-6.1L35,41.5L35.1,28L35.1,28z M35.1,26.8c-0.2,0-0.3,0.1-0.5,0.1
	c-0.4,0.2-0.7,0.6-0.7,1.1v13.6c0,0.5,0.3,0.9,0.7,1.1c0.2,0.1,0.4,0.1,0.5,0.1c0.3,0,0.6-0.1,0.9-0.3l2.1-2L40,45
	c0.1,0.3,0.4,0.6,0.7,0.7c0.1,0.1,0.3,0.1,0.4,0.1c0.2,0,0.3-0.1,0.5-0.1l1.8-0.8c0.3-0.1,0.6-0.4,0.7-0.7s0.1-0.7,0-0.9l-2-4.4
	l3-0.2c0.5-0.1,0.9-0.4,1-0.8c0.2-0.4,0.1-1-0.3-1.3l-9.9-9.3C35.8,26.9,35.4,26.8,35.1,26.8"/>
</svg>
