
<svg xmlns="http://www.w3.org/2000/svg" version="1.1" xmlns:xlink="http://www.w3.org/1999/xlink" preserveAspectRatio="none" x="0px" y="0px" width="256px" height="256px" viewBox="0 0 256 256">
<defs>
<g id="Layer0_0_MEMBER_0_MEMBER_0_FILL">
<path fill="#FFFFFF" stroke="none" d="
M 245.05 167.7
L 209.05 174.7 169.05 247.2 222.55 235.2 245.05 167.7
M 316.05 167.7
L 280.55 177.7 280.55 251.2 338.55 235.2 316.05 167.7
M 280.55 177.7
L 245.05 167.7 222.55 235.2 280.55 251.2 280.55 177.7
M 338.55 235.2
L 392.05 247.2 352.05 174.7 316.05 167.7 338.55 235.2 Z"/>
</g>

<g id="Layer0_0_MEMBER_1_FILL">
<path fill="#FFFFFF" stroke="none" d="
M 267.4 91.6
Q 264.9 92.05 264.9 94.2
L 264.9 140.8 248 140.8
Q 247.2 140.85 246.45 140.95 245.75 141.15 245.15 141.45 244.55 141.75 244.1 142.2 243.65 142.7 243.4 143.3 243.1 143.9 243.05 144.6 243 145.25 243.2 145.85 243.4 146.55 243.8 147.2 244.2 147.9 244.75 148.55
L 279 184.2
Q 280.9 185.6 282.75 184.2
L 317 148.55
Q 317.55 147.9 317.95 147.2 318.35 146.55 318.55 145.85 318.75 145.25 318.7 144.6 318.65 143.9 318.35 143.3 318.1 142.7 317.65 142.2 317.2 141.75 316.6 141.45 316 141.15 315.3 140.95 314.55 140.85 313.75 140.8
L 296.85 140.8 296.85 94.2
Q 296.85 92.05 294.35 91.6
L 267.4 91.6 Z"/>
</g>

<path id="Layer0_0_MEMBER_0_MEMBER_0_1_STROKES" stroke="#000000" stroke-width="2" stroke-linejoin="round" stroke-linecap="round" fill="none" d="
M 128.01147232055666 135.27559661865232
L 128.01147232055666 208.76550292968747
M 92.51634750366213 125.27696990966794
L 70.01943740844729 192.76770019531247
M 163.5065971374512 125.27696990966794
L 186.00350723266604 192.76770019531247"/>

<path id="Layer0_0_MEMBER_0_MEMBER_0_2_STROKES" stroke="#000000" stroke-width="7" stroke-linejoin="round" stroke-linecap="round" fill="none" d="
M 16.526784515380882 204.76605224609372
L 56.52129135131838 132.276008605957 92.51634750366213 125.27696990966794 128.01147232055666 135.27559661865232 163.5065971374512 125.27696990966794 199.50165328979494 132.276008605957 239.49616012573244 204.76605224609372 186.00350723266604 192.76770019531247 128.01147232055666 208.76550292968747 70.01943740844729 192.76770019531247 16.526784515380882 204.76605224609372 Z"/>

<path id="Layer0_0_MEMBER_0_MEMBER_1_1_STROKES" stroke="#000000" stroke-width="2" stroke-linejoin="round" stroke-linecap="round" fill="none" d="
M 101.46511840820312 128.37654418945314
Q 105.21460342407227 134.7756652832031 108.16419830322263 141.52473831176755 110.31390304565434 146.37407226562502 111.91368331909177 151.4233787536621 113.9634017944336 157.8224998474121 112.33862495422363 164.3965969085693 120.01257095336916 164.921524810791 125.66179504394529 159.57225952148437 129.6112525939941 155.87276763916017 133.51071701049807 152.3232551574707 136.760270690918 149.47364654541016 140.85970764160152 147.67389373779295 147.4088081359863 144.87427825927736 154.70780563354492 144.77429199218747 161.90681686401365 144.72429885864258 168.85586242675777 146.02412033081052 171.65547790527341 146.62403793334963 174.505086517334 147.02398300170896 182.35400848388667 147.87386627197267 190.35290985107417 147.3239418029785 197.55192108154301 146.77401733398435 204.20100784301758 144.72429885864258 205.20087051391602 144.3243537902832 206.2507263183594 143.97440185546876
M 220.64874877929685 168.37105102539064
Q 215.1713760852814 184.08002624213694 200.25155029296877 173.32037124633788 185.3412934988737 162.55837282240392 168.80586929321294 162.4218681335449 149.10857467651363 162.27188873291013 159.65712585449216 187.21846237182618 161.90681686401365 192.5677276611328 161.8568237304687 198.36693115234377
M 45.07286376953124 152.77319335937497
Q 52.0719024658203 149.8235984802246 59.32090682983397 147.82387313842773 67.01984939575198 145.6241752624512 75.06874389648436 146.52405166625974 77.81836624145507 147.02398300170896 80.26802978515627 148.17382507324217 87.11708908081056 151.6233512878418 93.96614837646484 155.4728225708008 100.76521453857424 159.32229385375976 107.71426010131836 162.92179946899412 109.9139579772949 164.12163467407228 112.33862495422363 164.3965969085693 111.71800706982617 171.03591938614844 108.03921546936033 174.74517555236818 104.36140029728415 178.45814214646813 96.61578445434571 184.01890182495114 88.86782518327237 189.57185007631776 85.46731567382812 193.96753540039063"/>

<path id="Layer0_0_MEMBER_1_1_STROKES" stroke="#000000" stroke-width="7" stroke-linejoin="round" stroke-linecap="round" fill="none" d="
M 112.36362152099605 49.83706359863282
L 112.36362152099605 96.43066406250003 95.4659423828125 96.43066406250003
Q 94.66605224609373 96.48065719604492 93.9161552429199 96.58064346313475 93.21625137329102 96.78061599731447 92.61633377075196 97.08057479858397 92.01641616821291 97.38053359985352 91.56647796630858 97.8304718017578 91.11653976440431 98.33040313720701 90.8665740966797 98.93032073974612 90.56661529541014 99.53023834228517 90.51662216186526 100.23014221191406 90.46662902832031 100.88005294799805 90.66660156249998 101.4799705505371 90.8665740966797 102.17987442016604 91.26651916503909 102.82978515624998 91.66646423339841 103.52968902587892 92.21638870239258 104.17959976196292
L 126.46168518066406 139.82470397949217
Q 128.36142425537105 141.22451171875 130.2111701965332 139.82470397949217
L 164.4564666748047 104.17959976196292
Q 165.00639114379885 103.52968902587892 165.40633621215818 102.82978515624998 165.80628128051762 102.17987442016604 166.0062538146973 101.4799705505371 166.20622634887695 100.88005294799805 166.156233215332 100.23014221191406 166.10624008178706 99.53023834228517 165.80628128051762 98.93032073974612 165.55631561279301 98.33040313720701 165.10637741088863 97.8304718017578 164.65643920898435 97.38053359985352 164.05652160644536 97.08057479858397 163.45660400390625 96.78061599731447 162.75670013427737 96.58064346313475 162.00680313110354 96.48065719604492 161.20691299438477 96.43066406250003
L 144.30923385620122 96.43066406250003 144.30923385620122 49.83706359863282
Q 144.30923385620122 47.687358856201165 141.80957717895512 47.23742065429686
L 114.86327819824214 47.23742065429686
Q 112.36362152099605 47.687358856201165 112.36362152099605 49.83706359863282 Z"/>
</defs>

<g transform="matrix( 0.9998626708984375, 0, 0, 0.9998626708984375, -152.5,-42.4) ">
<use xlink:href="#Layer0_0_MEMBER_0_MEMBER_0_FILL"/>

<use xlink:href="#Layer0_0_MEMBER_0_MEMBER_0_1_STROKES" transform="matrix( 1.0001373291015625, 0, 0, 1.0001373291015625, 152.5,42.4) "/>

<use xlink:href="#Layer0_0_MEMBER_0_MEMBER_0_2_STROKES" transform="matrix( 1.0001373291015625, 0, 0, 1.0001373291015625, 152.5,42.4) "/>
</g>

<g transform="matrix( 0.9998626708984375, 0, 0, 0.9998626708984375, -152.5,-42.4) ">
<use xlink:href="#Layer0_0_MEMBER_0_MEMBER_1_1_STROKES" transform="matrix( 1.0001373291015625, 0, 0, 1.0001373291015625, 152.5,42.4) "/>
</g>

<g transform="matrix( 0.9998626708984375, 0, 0, 0.9998626708984375, -152.5,-44.35) ">
<use xlink:href="#Layer0_0_MEMBER_1_FILL"/>

<use xlink:href="#Layer0_0_MEMBER_1_1_STROKES" transform="matrix( 1.0001373291015625, 0, 0, 1.0001373291015625, 152.5,44.35) "/>
</g>
</svg>
